Coordinates
version=1
nRows=7
nColumns=40
inDegrees=yes

Units are S.I. units (second, meters, Newtons, ...)
Angles are in degrees.

endheader
time	pelvis_tilt	pelvis_list	pelvis_rotation	pelvis_tx	pelvis_ty	pelvis_tz	hip_flexion_r	hip_adduction_r	hip_rotation_r	knee_angle_r	knee_angle_r_beta	ankle_angle_r	subtalar_angle_r	mtp_angle_r	hip_flexion_l	hip_adduction_l	hip_rotation_l	knee_angle_l	knee_angle_l_beta	ankle_angle_l	subtalar_angle_l	mtp_angle_l	lumbar_extension	lumbar_bending	lumbar_rotation	arm_flex_r	arm_add_r	arm_rot_r	elbow_flex_r	pro_sup_r	wrist_flex_r	wrist_dev_r	arm_flex_l	arm_add_l	arm_rot_l	elbow_flex_l	pro_sup_l	wrist_flex_l	wrist_dev_l
     47.45750000	     -4.99640010	     -5.24630246	     -0.43418667	      1.02881884	      0.91915585	      0.50709753	     23.16796241	      0.72597447	    -13.29634925	     21.42105277	     21.42105277	      5.30565069	     -1.80198129	     -4.10656218	     13.05624511	    -10.18422742	     -2.75130672	     50.74774909	     50.74774909	      8.12728400	    -17.60899436	     -8.88320437	    -12.08209316	      9.75452301	      2.03116369	      6.06001903	    -17.93616678	     -4.21828214	     47.05047413	     44.76901095	      0.00000000	      0.00000000	      2.79345000	    -13.19061199	     -3.34132943	     97.03944997	     47.50501544	      0.00000000	      0.00000000
     47.46942857	     -4.92477819	     -5.35358395	     -0.15723456	      1.02848908	      0.91991939	      0.50895624	     22.51907400	      0.92555528	    -13.48833198	     21.28190593	     21.28190593	      5.72751818	     -1.83946303	     -4.38061185	     15.35527468	    -10.45837420	     -1.95399369	     54.91502374	     54.91502374	      7.49396738	    -17.67236269	     -3.74262425	    -12.20122124	      9.84657696	      2.30777537	      6.74582238	    -18.33049448	     -4.50171962	     47.23847266	     44.84667183	      0.00000000	      0.00000000	      2.38218331	    -12.85183645	     -2.90762608	     94.71140892	     47.51168260	      0.00000000	      0.00000000
     47.48135714	     -4.84235334	     -5.44155060	      0.11461378	      1.02804441	      0.92064305	      0.51085103	     21.88547721	      1.13089739	    -13.62281060	     21.17867328	     21.17867328	      6.12351689	     -2.03459636	     -4.50942057	     17.50284599	    -10.72322547	     -1.26373760	     58.47294563	     58.47294563	      5.97327772	    -18.05156450	     -1.19105213	    -12.30415647	      9.89135609	      2.22456340	      7.67937319	    -18.59551955	     -4.51923012	     47.56824443	     44.86709855	      0.00000000	      0.00000000	      1.84150048	    -12.55356191	     -2.89603670	     91.90312137	     47.48583844	      0.00000000	      0.00000000
     47.49328571	     -4.81199674	     -5.49235914	      0.34007921	      1.02745067	      0.92133644	      0.51270987	     21.28723067	      1.31965118	    -13.68032397	     21.01396723	     21.01396723	      6.52399510	     -2.12169355	     -4.64719093	     19.68891050	    -10.82612873	     -0.50370943	     61.71016608	     61.71016608	      5.24771889	    -18.11238561	      2.68843325	    -12.39679149	      9.86479788	      2.43061095	      8.46183046	    -18.96279593	     -4.36486760	     47.85635032	     44.88636022	      0.00000000	      0.00000000	      1.56964477	    -12.18866480	     -2.69321288	     88.85288146	     47.45049461	      0.00000000	      0.00000000
     47.50521429	     -4.82008692	     -5.62352312	      0.58036340	      1.02674301	      0.92188213	      0.51463028	     20.71837464	      1.59501562	    -13.82288993	     20.81315014	     20.81315014	      6.89601413	     -2.16557814	     -4.71254475	     21.77395293	    -11.05507401	      0.17789747	     64.31028031	     64.31028031	      3.86074487	    -18.30776484	      3.54880344	    -12.52318155	      9.82070454	      2.45245661	      9.30753310	    -19.22705741	     -4.41752163	     48.27374247	     44.88472370	      0.00000000	      0.00000000	      0.69418900	    -12.06754118	     -2.44723688	     87.39655055	     47.40983541	      0.00000000	      0.00000000
     47.51714286	     -4.89958347	     -5.67735581	      0.85340278	      1.02586970	      0.92240363	      0.51640853	     20.23215231	      1.79798608	    -13.89592581	     20.58577521	     20.58577521	      7.20324251	     -2.38006200	     -4.70753063	     23.89779718	    -11.08201369	      0.90909951	     66.47752521	     66.47752521	      3.14309079	    -18.35307027	      5.02717453	    -12.47413675	      9.74734978	      2.19725809	     10.25218808	    -19.28966968	     -4.25518783	     48.84692347	     44.87174779	      0.00000000	      0.00000000	      0.13430909	    -11.98473132	     -2.31553726	     84.43337126	     47.35170600	      0.00000000	      0.00000000
     47.52907143	     -4.86208792	     -5.60085709	      1.02610544	      1.02491240	      0.92318105	      0.51804133	     19.67265817	      1.89192135	    -13.68515594	     20.44332732	     20.44332732	      7.54351345	     -2.64570546	     -4.67037798	     25.78851252	    -10.85499203	      1.53309563	     68.20488973	     68.20488973	      3.64199235	    -18.32275703	      8.56288708	    -12.59118183	      9.49864513	      2.78532343	     10.72838230	    -20.02187477	     -3.45754284	     49.42886635	     44.84934252	      0.00000000	      0.00000000	      0.84087678	    -11.20732549	     -2.23346557	     79.19970641	     47.28407257	      0.00000000	      0.00000000
